<svg width="34" height="33" viewBox="0 0 34 33" fill="none" xmlns="http://www.w3.org/2000/svg">
<path d="M31.7302 0.811035H2.27107C1.56261 0.811035 0.990234 1.38341 0.990234 2.09187V31.551C0.990234 32.2594 1.56261 32.8318 2.27107 32.8318H31.7302C32.4386 32.8318 33.011 32.2594 33.011 31.551V2.09187C33.011 1.38341 32.4386 0.811035 31.7302 0.811035ZM28.0318 10.1571H25.4741C23.4688 10.1571 23.0806 11.1097 23.0806 12.5106V15.5966H27.8677L27.2433 20.4278H23.0806V32.8318H18.0893V20.4318H13.9146V15.5966H18.0893V12.0343C18.0893 7.89963 20.615 5.64617 24.3054 5.64617C26.0745 5.64617 27.5915 5.77826 28.0358 5.8383V10.1571H28.0318Z" fill="#EF2779"/>
</svg>
