<svg width="33" height="33" viewBox="0 0 33 33" fill="none" xmlns="http://www.w3.org/2000/svg">
<path d="M31.7165 0.811035H2.25739C1.54893 0.811035 0.976562 1.38341 0.976562 2.09187V31.551C0.976562 32.2594 1.54893 32.8318 2.25739 32.8318H31.7165C32.425 32.8318 32.9973 32.2594 32.9973 31.551V2.09187C32.9973 1.38341 32.425 0.811035 31.7165 0.811035ZM10.4747 28.0967H5.72364V12.8148H10.4747V28.0967ZM8.10119 10.7255C7.55654 10.7255 7.02412 10.564 6.57126 10.2614C6.11841 9.95878 5.76545 9.5287 5.55702 9.02551C5.34859 8.52232 5.29406 7.96863 5.40031 7.43444C5.50657 6.90026 5.76884 6.40958 6.15396 6.02446C6.53909 5.63934 7.02977 5.37706 7.56395 5.27081C8.09813 5.16455 8.65182 5.21909 9.15501 5.42751C9.6582 5.63594 10.0883 5.9889 10.3909 6.44176C10.6935 6.89462 10.855 7.42703 10.855 7.97168C10.851 9.49267 9.61817 10.7255 8.10119 10.7255ZM28.2623 28.0967H23.5152V20.6639C23.5152 18.8908 23.4832 16.6133 21.0456 16.6133C18.576 16.6133 18.1957 18.5425 18.1957 20.5358V28.0967H13.4527V12.8148H18.0076V14.9042H18.0717C18.7041 13.7034 20.2531 12.4346 22.5666 12.4346C27.3777 12.4346 28.2623 15.6006 28.2623 19.7153V28.0967Z" fill="#EF2779"/>
</svg>
